<svg xmlns="http://www.w3.org/2000/svg" width="499.9741" height="842.37488" viewBox="0 0 499.9741 842.37488" xmlns:xlink="http://www.w3.org/1999/xlink" role="img" artist="Katerina Limpitsouni" source="https://undraw.co/"><path d="M491.11735,591.41861l-39.54321-80.73404s-6.59053-67.55298-32.95267-98.85801l-24.7145-46.13374-39.54321-39.54321s-41.19084-72.49588-69.20061-75.79114c-28.00977-3.29527-224.07817,80.73404-224.07817,80.73404,0,0-64.25771,8.23817-60.96244,34.6003,3.29527,26.36214,17.30015,31.33904,17.30015,31.33904l30.48122,8.20417,9.8858-1.64763,87.32458,1.64763-79.08641,24.7145-26.36214,8.23817s-28.00977,12.08125-22.24305,35.69803,22.24305,23.61678,22.24305,23.61678l32.95267-1.64763,34.6003-4.9429,54.37191,26.36214-42.83847,28.00977,3.29527,16.47634s-9.8858,18.12397,0,32.95267l9.8858,21.41924s16.47634,11.53343,29.6574-4.9429c0,0,8.23817-3.29527,8.23817-9.8858,0-6.59053,1.64763-13.18107,1.64763-13.18107,0,0,3.29527-1.64763,9.8858-1.64763,6.59053,0,8.23817,0,8.23817,0l21.41924,1.64763s-1.64763,8.23817,9.8858,9.8858c0,0,3.29527,19.7716,13.18107,19.7716,0,0,3.17272,12.15112,11.47216,17.609,0,0,44.54738,56.53452,79.14768,69.71558,0,0,41.19084,28.00977,54.37191,28.00977l112.03908-141.69649Z" fill="#ed9da0"/><path d="M276.82978,524.78351s-41.09564,69.93036-42.74327,92.99723" fill="#090814" opacity=".1"/><path d="M300.86203,524.78351s-20.64178,68.28272-12.40362,104.53066" fill="#090814" opacity=".1"/><path d="M292.56165,536.70342l-175.68198,25.4496c-22.89127,3.31607-44.21268-12.60943-47.52878-35.50095L3.69419,73.41521C.37808,50.52369,16.30387,29.20249,39.19514,25.88642L214.87712.43682c22.89151-3.31611,44.21268,12.60943,47.52878,35.50095l65.6567,453.23687c3.31611,22.89151-12.60943,44.21268-35.50095,47.52878Z" fill="#090814"/><path d="M290.60838,525.54721l-176.04006,25.50148c-17.17634,2.4882-33.17466-9.46174-35.66282-26.63783L13.12316,70.30663c-2.48816-17.1761,9.46149-33.17462,26.63783-35.66282L215.80105,9.14233c17.1761-2.48816,33.17466,9.46174,35.66282,26.63783l65.78235,454.10423c2.48816,17.1761-9.46174,33.17466-26.63783,35.66282Z" fill="#fff"/><path d="M160.07007,47.37343l-56.02025,8.11519c-6.45869.93562-12.47449-3.55757-13.41014-10.01651s3.55782-12.47452,10.01651-13.41014l56.02025-8.11519c6.45894-.93565,12.47449,3.55757,13.41014,10.01651.93565,6.45894-3.55757,12.47449-10.01651,13.41014Z" fill="#090814"/><path d="M128.75752,456.18629v.00006c2.68462,15.66021,17.35228,26.33412,33.07911,24.07222l85.28976-12.26672c16.29293-2.34332,27.46641-17.63456,24.74862-33.86923l-.07803-.46613c-2.64105-15.77619-17.43726-26.52585-33.25735-24.16192l-85.21173,12.73279c-16.26192,2.42994-27.34855,17.75287-24.57036,33.95893Z" fill="#2b7fff"/><path d="M499.9741,584.62039s-14.62347-33.56881-78.88118,57.05103c-64.25771,90.61985-88.97221,126.86778-72.49588,140.04885s64.57163,60.65459,64.57163,60.65459h86.80543v-257.75448Z" fill="#090814"/><path d="M374.13536,660.61922s-56.01954-23.06687-60.96244-164.76336c0,0-13.18107-16.47634-19.7716-16.47634s-8.23817-6.59053-8.23817-6.59053c0,0-16.47634,9.8858-26.36214,4.9429,0,0-52.72427,3.29527-64.25771-24.7145-11.53343-28.00977,29.6574-34.6003,29.6574-34.6003l11.53343-1.64763,41.19084-26.36214s18.12397-6.59053,31.30504,8.23817l51.07664,28.00977,42.83847,19.7716,21.41924,21.41924" fill="#ed9da0"/><path d="M234.08651,444.77922s-23.06687,18.12397-32.95267,3.29527c-9.8858-14.8287,8.83668-25.34107,8.83668-25.34107l25.76362-5.96397-4.9429,24.7145,3.29527,3.29527Z" fill="#090814" opacity=".1"/><path d="M141.81903,584.82807s-7.29324,4.24419-12.70861,25.18896l-3.76773-16.9508s0-16.11661,8.23817-15.47266c0,0,8.23817,2.29159,8.23817,7.23449Z" fill="#090814" opacity=".1"/><path d="M405.4404,408.53128s-26.44396,9.21433-37.93648,21.90732" fill="#090814" opacity=".1"/><path d="M103.92346,242.12029l37.89557,141.69649s46.13374,26.36214,85.67695-11.53343v-146.98908l-123.57252,16.82603Z" fill="#d6d6e3"/><path d="M95.68529,232.23449v5.72402s-4.9429,7.45705,3.29527,10.75232c8.23817,3.29527,113.68672,0,133.45832-21.41924,0,0,4.9429-1.64763-1.64763-6.59053l-1.64763-6.59053s-6.59053-4.9429-9.8858-4.9429l-4.9429-13.18107s-80.73404-8.23817-110.39145,16.94969l-1.64763,11.06008-6.59053,8.23817Z" fill="#2b7fff"/><path d="M102.27582,223.99632v6.59053s67.55298,16.47634,120.27725-14.8287l-3.29527-6.59053" fill="#2b7fff"/><path d="M108.86636,273.42533l19.7716,74.14351s59.31481,31.30504,102.15328-14.8287l-1.64763-75.79114s-62.61008,34.6003-120.27725,16.47634Z" fill="#090814"/></svg>